<svg width="165" height="35" viewBox="0 0 165 35" fill="none" xmlns="http://www.w3.org/2000/svg">
<path d="M52.837 23.6376V23.6376C52.2389 23.3385 51.5535 23.2632 50.9046 23.4254L50.774 23.4581C49.6464 23.74 48.7639 24.6172 48.4753 25.743L47.6745 28.8661C47.0486 31.3073 45.1435 33.2143 42.7029 33.8426V33.8426" stroke="white" stroke-width="2.17311"/>
<path d="M126.077 21.8742V21.8742C128.551 22.9321 131.316 23.2567 134.01 22.8057L134.523 22.7198" stroke="white" stroke-width="2.17311"/>
<path d="M143.731 19.0326C144.26 18.7481 144.457 18.0891 144.173 17.5608C143.888 17.0324 143.229 16.8347 142.701 17.1193L143.731 19.0326ZM142.701 17.1193L141.507 17.7624L142.537 19.6758L143.731 19.0326L142.701 17.1193ZM141.507 17.7624C137.209 20.0767 134.718 24.7422 135.186 29.6008L137.349 29.3924C136.965 25.4046 139.01 21.5752 142.537 19.6758L141.507 17.7624Z" fill="white"/>
<path d="M143.216 18.0758V18.0758C143.216 17.8481 142.982 17.6818 142.756 17.7489L141.61 18.0888C141.497 18.1225 141.39 18.1722 141.292 18.2362L134.017 23.0109L131.144 25.1483C128.313 27.2539 124.509 27.7958 121.072 26.5831V26.5831" stroke="white" stroke-width="2.17311"/>
<path d="M86.5102 26.9397L86.1058 26.4332C84.7172 24.6939 84.4903 22.3679 85.5194 20.4204" stroke="white" stroke-width="2.17311"/>
<path d="M96.8321 28.0262L93.8769 24.9383C92.0773 23.0579 89.2267 24.6377 87.5048 22.6859V22.6859C86.4986 21.5454 85.9666 20.2373 85.9666 18.9037V16.6174" stroke="white" stroke-width="2.17311"/>
<path d="M54.691 23.1741L52.6156 25.5829C51.8898 26.4252 52.1359 27.7237 53.1196 28.242V28.242C54.0898 28.7533 54.3453 30.0269 53.6474 30.8729L51.1973 33.8427" stroke="white" stroke-width="2.17311"/>
<path d="M9.33648 9.74972C9.33648 14.9694 11.8824 17.5793 16.9742 17.5793C21.9589 17.5793 24.4513 14.9694 24.4513 9.74972C24.4513 4.60216 21.9589 2.02838 16.9742 2.02838C11.8824 2.02838 9.33648 4.60216 9.33648 9.74972ZM6.48877 9.83086C6.48877 3.27695 9.98391 0 16.9742 0C23.8574 0 27.299 3.27695 27.299 9.83086C27.299 16.3487 23.8574 19.6076 16.9742 19.6076C9.98391 19.6076 6.48877 16.3487 6.48877 9.83086Z" fill="white"/>
<path d="M31.2566 19.4724V5.27378H33.082L33.5639 7.08579C34.9075 5.87778 36.5236 5.27378 38.4123 5.27378V7.35624C36.582 7.35624 35.0973 7.95574 33.9582 9.15473V19.4724H31.2566Z" fill="white"/>
<path d="M44.1224 5.27378V19.4724H41.4207V5.27378H44.1224ZM44.1224 0.135225V2.50166H41.4207V0.135225H44.1224Z" fill="white"/>
<path d="M59.0619 7.68078C58.137 7.46442 56.993 7.35624 55.63 7.35624C52.3686 7.35624 50.7378 8.99246 50.7378 12.2649C50.7378 15.6275 52.2809 17.3088 55.3672 17.3088C56.7691 17.3088 58.0007 17.0654 59.0619 16.5786V7.68078ZM61.7636 19.4724C61.7636 22.8981 59.4124 24.611 54.71 24.611C52.8213 24.611 51.1467 24.3856 49.6863 23.9348L50.5197 23.1742C51.9101 23.6376 49.1292 21.3202 54.7392 22.5826C57.621 22.5826 59.0619 21.5459 59.0619 19.4724V18.7963C57.9131 19.247 56.6766 19.4724 55.3526 19.4724C50.5042 19.4724 48.0799 17.0789 48.0799 12.292C48.0799 7.61317 50.6356 5.27378 55.7469 5.27378C57.8206 5.27378 59.8261 5.4676 61.7636 5.85524V19.4724Z" fill="white"/>
<path d="M69.153 5.27378V19.4724H66.4513V5.27378H69.153ZM69.153 0.135225V2.50166H66.4513V0.135225H69.153Z" fill="white"/>
<path d="M73.8408 19.4724V5.27378H75.6662L76.1482 7.08579C77.7156 5.87778 79.4388 5.27378 81.3178 5.27378C85.144 5.27378 87.0571 7.03621 87.0571 10.5611V20.3933H84.3554V10.5205C84.3554 8.411 83.2212 7.35624 80.9528 7.35624C79.4048 7.35624 77.9347 7.95574 76.5424 9.15473V19.4724H73.8408Z" fill="white"/>
<path d="M90.7226 15.1858C90.7226 12.2739 92.7963 10.818 96.9437 10.818C98.2775 10.818 99.6113 10.9082 100.945 11.0885V9.74972C100.945 8.11801 99.5675 7.30215 96.8123 7.30215C95.2351 7.30215 93.619 7.52753 91.9639 7.97828V5.9499C93.619 5.49915 95.2351 5.27378 96.8123 5.27378C101.369 5.27378 103.647 6.74322 103.647 9.68211V19.4724H102.128L101.193 18.0661C99.6649 19.0036 98.0001 19.4724 96.199 19.4724C92.548 19.4724 90.7226 18.0435 90.7226 15.1858ZM96.9437 12.8464C94.5974 12.8464 93.4243 13.6127 93.4243 15.1452C93.4243 16.6778 94.3492 17.444 96.199 17.444C98.0682 17.444 99.6503 16.9843 100.945 16.0647V13.1168C99.6113 12.9365 98.2775 12.8464 96.9437 12.8464Z" fill="white"/>
<path d="M108.043 19.4724V5.27378H109.868L110.35 7.08579C111.693 5.87778 113.31 5.27378 115.198 5.27378V7.35624C113.368 7.35624 111.883 7.95574 110.744 9.15473V19.4724H108.043Z" fill="white"/>
<path d="M120.908 5.27378V19.4724H118.207V5.27378H120.908ZM120.908 0.135225V2.50166H118.207V0.135225H120.908Z" fill="white"/>
<path d="M127.568 12.319C127.568 15.7357 129.101 17.444 132.168 17.444C135.234 17.444 136.768 15.7357 136.768 12.319C136.768 8.97443 135.234 7.30215 132.168 7.30215C129.101 7.30215 127.568 8.97443 127.568 12.319ZM124.866 12.3731C124.866 7.64021 127.3 5.27378 132.168 5.27378C137.036 5.27378 139.47 7.64021 139.47 12.3731C139.47 17.097 137.036 19.4589 132.168 19.4589C127.319 19.4589 124.885 17.097 124.866 12.3731Z" fill="white"/>
<path d="M142.974 18.7963V16.8592C143.68 16.2219 146.596 17.444 148.436 17.444C150.88 17.444 152.102 16.7679 152.102 15.4157C152.102 14.1536 151.25 13.5225 149.546 13.5225H147.356C144.045 13.5225 142.39 12.1252 142.39 9.33053C142.39 6.62603 144.518 5.27378 148.772 5.27378C150.602 5.27378 152.418 5.49915 154.219 5.9499V8.1135C152.418 7.5726 150.602 7.30215 148.772 7.30215C146.221 7.30215 144.946 7.97828 144.946 9.33053C144.946 10.5926 145.749 11.2237 147.356 11.2237H149.546C153.051 11.2237 154.803 12.621 154.803 15.4157C154.803 18.1202 152.681 19.4724 148.436 19.4724C146.596 19.4724 144.776 19.247 142.974 18.7963Z" fill="white"/>
</svg>
